<svg preserveAspectRatio="none" overflow="visible" style="display: block;" width="16" height="16" viewBox="0 0 16 16" fill="none" xmlns="http://www.w3.org/2000/svg">
<g id="software/Pin">
<path id="Shape" d="M10.8686 1.61507C9.87546 0.62187 8.20597 0.865447 7.53795 2.10101L5.40083 6.05383L2.14037 7.35307C1.92173 7.44019 1.76155 7.6314 1.71407 7.86192C1.6666 8.09244 1.7382 8.33139 1.90462 8.49781L4.20869 10.8019L1.20508 13.8056L1 15L2.19457 14.7951L5.19818 11.7914L7.50207 14.0953C7.66838 14.2616 7.90711 14.3333 8.1375 14.286C8.36789 14.2387 8.55911 14.0788 8.64646 13.8604L9.95177 10.5971L13.8993 8.462C15.1346 7.79384 15.378 6.12452 14.3849 5.13141L10.8686 1.61507ZM8.76891 2.76656C8.99158 2.35471 9.54808 2.27351 9.87914 2.60458L13.3954 6.12093C13.7265 6.45196 13.6453 7.0084 13.2336 7.23112L9.06332 9.48669C8.9194 9.56453 8.80731 9.69035 8.74654 9.84227L7.74126 12.3555L3.6455 8.25969L6.15461 7.25985C6.30693 7.19915 6.4331 7.08688 6.51109 6.94264L8.76891 2.76656Z" fill="white"/>
</g>
</svg>
